<svg width="359" height="77" viewBox="0 0 359 77" fill="none" xmlns="http://www.w3.org/2000/svg">
<path fill-rule="evenodd" clip-rule="evenodd" d="M-1 -3H359V21H-1V-3Z" fill="#0D47A1"/>
<g opacity="0.9">
<path d="M304.696 15H303.042V7.00879L300.602 7.84277V6.44141L304.484 5.0127H304.696V15ZM314.643 10.8096C314.643 12.2406 314.374 13.3206 313.836 14.0498C313.303 14.7744 312.489 15.1367 311.396 15.1367C310.32 15.1367 309.509 14.7835 308.962 14.0771C308.42 13.3662 308.142 12.3158 308.128 10.9258V9.20312C308.128 7.77214 308.395 6.69889 308.928 5.9834C309.466 5.2679 310.284 4.91016 311.382 4.91016C312.471 4.91016 313.282 5.25879 313.816 5.95605C314.353 6.65332 314.629 7.69694 314.643 9.08691V10.8096ZM312.982 8.9502C312.982 8.01595 312.854 7.33236 312.599 6.89941C312.344 6.46191 311.938 6.24316 311.382 6.24316C310.84 6.24316 310.441 6.45052 310.186 6.86523C309.93 7.27539 309.796 7.91797 309.782 8.79297V11.0488C309.782 11.9785 309.912 12.6712 310.172 13.127C310.432 13.5827 310.84 13.8105 311.396 13.8105C311.929 13.8105 312.323 13.6009 312.578 13.1816C312.833 12.7578 312.968 12.097 312.982 11.1992V8.9502ZM317.22 13.25C317.53 13.25 317.769 13.3389 317.938 13.5166C318.106 13.6898 318.191 13.9085 318.191 14.1729C318.191 14.4326 318.106 14.6491 317.938 14.8223C317.769 14.9909 317.53 15.0752 317.22 15.0752C316.924 15.0752 316.689 14.9909 316.516 14.8223C316.343 14.6536 316.256 14.4372 316.256 14.1729C316.256 13.9085 316.34 13.6898 316.509 13.5166C316.678 13.3389 316.914 13.25 317.22 13.25ZM317.22 7.44629C317.53 7.44629 317.769 7.53516 317.938 7.71289C318.106 7.88607 318.191 8.10482 318.191 8.36914C318.191 8.62891 318.106 8.84538 317.938 9.01855C317.769 9.18717 317.53 9.27148 317.22 9.27148C316.924 9.27148 316.689 9.18717 316.516 9.01855C316.343 8.84993 316.256 8.63346 316.256 8.36914C316.256 8.10482 316.34 7.88607 316.509 7.71289C316.678 7.53516 316.914 7.44629 317.22 7.44629ZM326.524 15H319.831V13.8584L323.147 10.2422C323.625 9.70898 323.965 9.26465 324.165 8.90918C324.37 8.54915 324.473 8.18913 324.473 7.8291C324.473 7.35514 324.338 6.97233 324.069 6.68066C323.805 6.389 323.447 6.24316 322.996 6.24316C322.458 6.24316 322.041 6.40723 321.745 6.73535C321.449 7.06348 321.301 7.51237 321.301 8.08203H319.64C319.64 7.47591 319.776 6.93132 320.05 6.44824C320.328 5.96061 320.722 5.58236 321.233 5.31348C321.747 5.0446 322.34 4.91016 323.01 4.91016C323.976 4.91016 324.737 5.15397 325.293 5.6416C325.854 6.12467 326.134 6.7946 326.134 7.65137C326.134 8.14811 325.993 8.66992 325.71 9.2168C325.432 9.75911 324.974 10.3766 324.336 11.0693L321.902 13.6738H326.524V15ZM334.057 7.67188C334.057 8.15951 333.931 8.59473 333.681 8.97754C333.43 9.35579 333.088 9.6543 332.655 9.87305C333.175 10.1146 333.574 10.445 333.852 10.8643C334.134 11.2835 334.275 11.7575 334.275 12.2861C334.275 13.1611 333.979 13.8561 333.387 14.3711C332.794 14.8815 332.006 15.1367 331.022 15.1367C330.033 15.1367 329.24 14.8792 328.643 14.3643C328.05 13.8493 327.754 13.1566 327.754 12.2861C327.754 11.7529 327.895 11.2744 328.178 10.8506C328.46 10.4268 328.857 10.1009 329.367 9.87305C328.939 9.6543 328.599 9.35579 328.349 8.97754C328.103 8.59473 327.98 8.15951 327.98 7.67188C327.98 6.82422 328.253 6.15202 328.8 5.65527C329.347 5.15853 330.085 4.91016 331.015 4.91016C331.949 4.91016 332.69 5.15853 333.236 5.65527C333.783 6.15202 334.057 6.82422 334.057 7.67188ZM332.614 12.2041C332.614 11.7119 332.466 11.3154 332.17 11.0146C331.878 10.7093 331.491 10.5566 331.008 10.5566C330.525 10.5566 330.137 10.707 329.846 11.0078C329.559 11.3086 329.415 11.7074 329.415 12.2041C329.415 12.6917 329.556 13.0814 329.839 13.373C330.126 13.6647 330.52 13.8105 331.022 13.8105C331.523 13.8105 331.913 13.6693 332.191 13.3867C332.473 13.1042 332.614 12.71 332.614 12.2041ZM332.402 7.7334C332.402 7.30046 332.277 6.94499 332.026 6.66699C331.776 6.38444 331.439 6.24316 331.015 6.24316C330.591 6.24316 330.256 6.3776 330.01 6.64648C329.764 6.91081 329.641 7.27311 329.641 7.7334C329.641 8.18913 329.764 8.55143 330.01 8.82031C330.261 9.08919 330.598 9.22363 331.022 9.22363C331.445 9.22363 331.78 9.08919 332.026 8.82031C332.277 8.55143 332.402 8.18913 332.402 7.7334Z" fill="white"/>
</g>
<path fill-rule="evenodd" clip-rule="evenodd" d="M289 3.875V3L286 3V3.875H283V17H292V3.875H289Z" fill="white"/>
<path fill-rule="evenodd" clip-rule="evenodd" d="M260 17H274V3L260 17Z" fill="white"/>
<path fill-rule="evenodd" clip-rule="evenodd" d="M240 6.01593L249 17L258 6.01593C255.495 4.12256 252.378 3 249 3C245.621 3 242.504 4.12256 240 6.01593Z" fill="white"/>
</svg>
