<svg width="359" height="753" viewBox="0 0 359 753" fill="none" xmlns="http://www.w3.org/2000/svg">
<path d="M38.6275 -104.866C40.4901 -108.254 44.6799 -109.375 47.9858 -107.371L515.735 176.212C519.041 178.216 520.211 182.587 518.349 185.975L367.175 460.931C365.273 464.391 360.11 462.24 360.933 458.331C381.251 361.884 301.404 272.301 206.947 285.569L112.121 298.887C24.438 306.081 -61.9156 267.726 -118.525 196.443L-123.232 190.517C-123.425 190.273 -123.456 189.933 -123.308 189.664L38.6275 -104.866Z" fill="#BBDEFB"/>
<path d="M-104 -61C-104 -64.866 -100.866 -68 -97 -68H380C383.866 -68 387 -64.866 387 -61V213.181C387 216.638 382.126 217.371 381.11 214.067C356.016 132.514 256.806 101.655 189.88 154.585L122.821 207.622C58.5598 252.894 -23.9539 263.394 -97.5051 235.659L-103.583 233.367C-103.834 233.273 -104 233.032 -104 232.764V-61Z" fill="#1565C0"/>
<path d="M382.979 897.016C382.715 900.873 379.375 903.764 375.52 903.472L-101.117 867.405C-104.972 867.114 -107.883 863.75 -107.618 859.894L-88.8476 586.354C-88.6105 582.9 -83.6934 582.534 -82.9026 585.912C-63.3975 669.235 33.4736 707.553 103.945 659.822L174.735 611.876C242.057 571.559 325.173 567.315 396.751 600.54L402.714 603.308C402.959 603.421 403.109 603.675 403.09 603.944L382.979 897.016Z" fill="#1565C0"/>
</svg>
