<svg width="359" height="755" viewBox="0 0 359 755" fill="none" xmlns="http://www.w3.org/2000/svg">
<mask id="mask0_1_85" style="mask-type:luminance" maskUnits="userSpaceOnUse" x="0" y="0" width="359" height="755">
<path fill-rule="evenodd" clip-rule="evenodd" d="M37.5362 0H321.464C342.194 0 359 16.7722 359 37.4618V717.538C359 738.228 342.194 755 321.464 755H37.5362C16.8055 755 0 738.228 0 717.538V37.4618C0 16.7722 16.8055 0 37.5362 0Z" fill="white"/>
</mask>
<g mask="url(#mask0_1_85)">
<g filter="url(#filter0_d_1_85)">
<g clip-path="url(#clip0_1_85)">
<rect y="-2" width="359" height="755" rx="30" fill="white"/>
<path d="M38.6275 -104.866C40.4901 -108.254 44.6799 -109.375 47.9858 -107.371L515.735 176.212C519.041 178.216 520.211 182.587 518.349 185.975L367.175 460.931C365.273 464.391 360.11 462.24 360.933 458.331C381.251 361.884 301.404 272.301 206.947 285.569L112.121 298.887C24.438 306.081 -61.9156 267.726 -118.525 196.443L-123.232 190.517C-123.425 190.273 -123.456 189.933 -123.308 189.664L38.6275 -104.866Z" fill="#BBDEFB"/>
<path d="M-104 -61C-104 -64.866 -100.866 -68 -97 -68H380C383.866 -68 387 -64.866 387 -61V213.181C387 216.638 382.126 217.371 381.11 214.067C356.016 132.514 256.806 101.655 189.88 154.585L122.821 207.622C58.5598 252.894 -23.9539 263.394 -97.5051 235.659L-103.583 233.367C-103.834 233.273 -104 233.032 -104 232.764V-61Z" fill="#1565C0"/>
<path d="M382.979 897.016C382.715 900.873 379.375 903.764 375.52 903.472L-101.117 867.405C-104.972 867.114 -107.883 863.75 -107.618 859.894L-88.8476 586.354C-88.6105 582.9 -83.6934 582.534 -82.9026 585.912C-63.3975 669.235 33.4736 707.553 103.945 659.822L174.735 611.876C242.057 571.559 325.173 567.315 396.751 600.54L402.714 603.308C402.959 603.421 403.109 603.675 403.09 603.944L382.979 897.016Z" fill="#1565C0"/>
<path d="M31.806 359C31.6287 359 31.484 358.949 31.372 358.846C31.2693 358.743 31.218 358.608 31.218 358.44V349.69C31.218 349.522 31.2693 349.387 31.372 349.284C31.484 349.181 31.6287 349.13 31.806 349.13H37.042C37.21 349.13 37.3407 349.172 37.434 349.256C37.5273 349.34 37.574 349.457 37.574 349.606C37.574 349.755 37.5273 349.872 37.434 349.956C37.3407 350.04 37.21 350.082 37.042 350.082H32.352V353.512H36.762C36.93 353.512 37.0607 353.554 37.154 353.638C37.2473 353.722 37.294 353.839 37.294 353.988C37.294 354.137 37.2473 354.254 37.154 354.338C37.0607 354.422 36.93 354.464 36.762 354.464H32.352V358.048H37.042C37.21 358.048 37.3407 358.09 37.434 358.174C37.5273 358.249 37.574 358.365 37.574 358.524C37.574 358.673 37.5273 358.79 37.434 358.874C37.3407 358.958 37.21 359 37.042 359H31.806ZM46.7864 352.014C48.2984 352.014 49.0544 352.915 49.0544 354.716V358.51C49.0544 358.687 49.0031 358.827 48.9004 358.93C48.7978 359.023 48.6624 359.07 48.4944 359.07C48.3264 359.07 48.1864 359.023 48.0744 358.93C47.9718 358.827 47.9204 358.687 47.9204 358.51V354.744C47.9204 354.119 47.8084 353.666 47.5844 353.386C47.3604 353.106 47.0104 352.966 46.5344 352.966C45.9651 352.966 45.5171 353.157 45.1904 353.54C44.8638 353.923 44.7004 354.441 44.7004 355.094V358.51C44.7004 358.687 44.6444 358.827 44.5324 358.93C44.4298 359.023 44.2944 359.07 44.1264 359.07C43.9584 359.07 43.8231 359.023 43.7204 358.93C43.6178 358.827 43.5664 358.687 43.5664 358.51V354.744C43.5664 354.119 43.4544 353.666 43.2304 353.386C43.0064 353.106 42.6518 352.966 42.1664 352.966C41.6064 352.966 41.1584 353.157 40.8224 353.54C40.4958 353.923 40.3324 354.441 40.3324 355.094V358.51C40.3324 358.687 40.2811 358.827 40.1784 358.93C40.0758 359.023 39.9404 359.07 39.7724 359.07C39.6044 359.07 39.4644 359.023 39.3524 358.93C39.2498 358.827 39.1984 358.687 39.1984 358.51V352.602C39.1984 352.434 39.2498 352.299 39.3524 352.196C39.4644 352.093 39.6044 352.042 39.7724 352.042C39.9311 352.042 40.0618 352.093 40.1644 352.196C40.2671 352.289 40.3184 352.42 40.3184 352.588V353.26C40.5238 352.859 40.8084 352.551 41.1724 352.336C41.5364 352.121 41.9564 352.014 42.4324 352.014C43.4964 352.014 44.1918 352.462 44.5184 353.358C44.7144 352.947 45.0131 352.621 45.4144 352.378C45.8158 352.135 46.2731 352.014 46.7864 352.014ZM53.9063 352.014C55.6143 352.014 56.4683 352.91 56.4683 354.702V358.51C56.4683 358.678 56.417 358.813 56.3143 358.916C56.221 359.019 56.0903 359.07 55.9223 359.07C55.7543 359.07 55.619 359.019 55.5163 358.916C55.4136 358.813 55.3623 358.678 55.3623 358.51V357.838C55.185 358.239 54.9143 358.552 54.5503 358.776C54.1863 358.991 53.7663 359.098 53.2903 359.098C52.8516 359.098 52.4456 359.009 52.0723 358.832C51.7083 358.655 51.419 358.407 51.2043 358.09C50.9896 357.773 50.8823 357.423 50.8823 357.04C50.8823 356.527 51.013 356.13 51.2743 355.85C51.5356 355.561 51.965 355.355 52.5623 355.234C53.1596 355.103 53.9903 355.038 55.0543 355.038H55.3623V354.576C55.3623 354.016 55.2456 353.605 55.0123 353.344C54.7883 353.083 54.4196 352.952 53.9063 352.952C53.2716 352.952 52.6276 353.125 51.9743 353.47C51.7223 353.629 51.545 353.708 51.4423 353.708C51.3303 353.708 51.237 353.666 51.1623 353.582C51.0876 353.498 51.0503 353.391 51.0503 353.26C51.0503 353.129 51.0876 353.017 51.1623 352.924C51.2463 352.821 51.377 352.719 51.5543 352.616C51.881 352.429 52.2496 352.285 52.6603 352.182C53.0803 352.07 53.4956 352.014 53.9063 352.014ZM53.4443 358.202C54.0043 358.202 54.4616 358.015 54.8163 357.642C55.1803 357.259 55.3623 356.769 55.3623 356.172V355.766H55.1103C54.289 355.766 53.6636 355.803 53.2343 355.878C52.805 355.943 52.497 356.06 52.3103 356.228C52.133 356.387 52.0443 356.625 52.0443 356.942C52.0443 357.306 52.175 357.609 52.4363 357.852C52.707 358.085 53.043 358.202 53.4443 358.202ZM59.1181 359.07C58.9501 359.07 58.8101 359.023 58.6981 358.93C58.5955 358.827 58.5441 358.687 58.5441 358.51V352.602C58.5441 352.425 58.5955 352.289 58.6981 352.196C58.8101 352.093 58.9501 352.042 59.1181 352.042C59.2861 352.042 59.4215 352.093 59.5241 352.196C59.6268 352.289 59.6781 352.425 59.6781 352.602V358.51C59.6781 358.697 59.6268 358.837 59.5241 358.93C59.4215 359.023 59.2861 359.07 59.1181 359.07ZM59.1181 350.572C58.8941 350.572 58.7121 350.507 58.5721 350.376C58.4321 350.245 58.3621 350.073 58.3621 349.858C58.3621 349.653 58.4321 349.485 58.5721 349.354C58.7121 349.223 58.8941 349.158 59.1181 349.158C59.3421 349.158 59.5241 349.223 59.6641 349.354C59.8041 349.485 59.8741 349.653 59.8741 349.858C59.8741 350.073 59.8041 350.245 59.6641 350.376C59.5241 350.507 59.3421 350.572 59.1181 350.572ZM62.372 359.07C62.204 359.07 62.064 359.023 61.952 358.93C61.8494 358.827 61.798 358.687 61.798 358.51V349.62C61.798 349.443 61.8494 349.307 61.952 349.214C62.064 349.111 62.204 349.06 62.372 349.06C62.5307 349.06 62.6614 349.111 62.764 349.214C62.876 349.307 62.932 349.443 62.932 349.62V358.51C62.932 358.687 62.876 358.827 62.764 358.93C62.6614 359.023 62.5307 359.07 62.372 359.07Z" fill="#1565C0"/>
<path d="M31.792 433.07C31.6147 433.07 31.4747 433.019 31.372 432.916C31.2693 432.804 31.218 432.659 31.218 432.482V423.69C31.218 423.522 31.2693 423.387 31.372 423.284C31.484 423.181 31.6287 423.13 31.806 423.13H35.124C36.16 423.13 36.9627 423.382 37.532 423.886C38.1107 424.39 38.4 425.104 38.4 426.028C38.4 426.952 38.1107 427.671 37.532 428.184C36.9533 428.697 36.1507 428.954 35.124 428.954H32.366V432.482C32.366 432.659 32.3147 432.804 32.212 432.916C32.1093 433.019 31.9693 433.07 31.792 433.07ZM35.012 428.002C36.5147 428.002 37.266 427.344 37.266 426.028C37.266 424.731 36.5147 424.082 35.012 424.082H32.366V428.002H35.012ZM42.709 426.014C44.417 426.014 45.271 426.91 45.271 428.702V432.51C45.271 432.678 45.2197 432.813 45.117 432.916C45.0237 433.019 44.893 433.07 44.725 433.07C44.557 433.07 44.4217 433.019 44.319 432.916C44.2164 432.813 44.165 432.678 44.165 432.51V431.838C43.9877 432.239 43.717 432.552 43.353 432.776C42.989 432.991 42.569 433.098 42.093 433.098C41.6544 433.098 41.2484 433.009 40.875 432.832C40.511 432.655 40.2217 432.407 40.007 432.09C39.7924 431.773 39.685 431.423 39.685 431.04C39.685 430.527 39.8157 430.13 40.077 429.85C40.3384 429.561 40.7677 429.355 41.365 429.234C41.9624 429.103 42.793 429.038 43.857 429.038H44.165V428.576C44.165 428.016 44.0484 427.605 43.815 427.344C43.591 427.083 43.2224 426.952 42.709 426.952C42.0744 426.952 41.4304 427.125 40.777 427.47C40.525 427.629 40.3477 427.708 40.245 427.708C40.133 427.708 40.0397 427.666 39.965 427.582C39.8904 427.498 39.853 427.391 39.853 427.26C39.853 427.129 39.8904 427.017 39.965 426.924C40.049 426.821 40.1797 426.719 40.357 426.616C40.6837 426.429 41.0524 426.285 41.463 426.182C41.883 426.07 42.2984 426.014 42.709 426.014ZM42.247 432.202C42.807 432.202 43.2644 432.015 43.619 431.642C43.983 431.259 44.165 430.769 44.165 430.172V429.766H43.913C43.0917 429.766 42.4664 429.803 42.037 429.878C41.6077 429.943 41.2997 430.06 41.113 430.228C40.9357 430.387 40.847 430.625 40.847 430.942C40.847 431.306 40.9777 431.609 41.239 431.852C41.5097 432.085 41.8457 432.202 42.247 432.202ZM49.6429 433.098C49.2135 433.098 48.8029 433.047 48.4109 432.944C48.0282 432.841 47.6875 432.697 47.3889 432.51C47.2209 432.398 47.0995 432.295 47.0249 432.202C46.9595 432.099 46.9269 431.978 46.9269 431.838C46.9269 431.717 46.9595 431.619 47.0249 431.544C47.0995 431.46 47.1929 431.418 47.3049 431.418C47.4169 431.418 47.5802 431.488 47.7949 431.628C48.0749 431.796 48.3502 431.931 48.6209 432.034C48.9009 432.127 49.2462 432.174 49.6569 432.174C50.1609 432.174 50.5529 432.085 50.8329 431.908C51.1129 431.731 51.2529 431.474 51.2529 431.138C51.2529 430.933 51.2015 430.769 51.0989 430.648C50.9962 430.517 50.8189 430.405 50.5669 430.312C50.3149 430.209 49.9462 430.107 49.4609 430.004C48.6395 429.827 48.0515 429.589 47.6969 429.29C47.3422 428.991 47.1649 428.585 47.1649 428.072C47.1649 427.671 47.2769 427.316 47.5009 427.008C47.7249 426.7 48.0329 426.457 48.4249 426.28C48.8262 426.103 49.2789 426.014 49.7829 426.014C50.1469 426.014 50.4969 426.065 50.8329 426.168C51.1782 426.261 51.4815 426.397 51.7429 426.574C52.0602 426.798 52.2189 427.031 52.2189 427.274C52.2189 427.395 52.1815 427.498 52.1069 427.582C52.0322 427.666 51.9435 427.708 51.8409 427.708C51.7289 427.708 51.5609 427.629 51.3369 427.47C51.0755 427.302 50.8282 427.171 50.5949 427.078C50.3615 426.985 50.0722 426.938 49.7269 426.938C49.2882 426.938 48.9335 427.036 48.6629 427.232C48.4015 427.428 48.2709 427.689 48.2709 428.016C48.2709 428.221 48.3175 428.389 48.4109 428.52C48.5135 428.641 48.6769 428.753 48.9009 428.856C49.1342 428.949 49.4655 429.043 49.8949 429.136C50.5295 429.276 51.0195 429.43 51.3649 429.598C51.7195 429.766 51.9715 429.971 52.1209 430.214C52.2702 430.457 52.3449 430.765 52.3449 431.138C52.3449 431.726 52.0975 432.202 51.6029 432.566C51.1082 432.921 50.4549 433.098 49.6429 433.098ZM56.3694 433.098C55.9401 433.098 55.5294 433.047 55.1374 432.944C54.7548 432.841 54.4141 432.697 54.1154 432.51C53.9474 432.398 53.8261 432.295 53.7514 432.202C53.6861 432.099 53.6534 431.978 53.6534 431.838C53.6534 431.717 53.6861 431.619 53.7514 431.544C53.8261 431.46 53.9194 431.418 54.0314 431.418C54.1434 431.418 54.3068 431.488 54.5214 431.628C54.8014 431.796 55.0768 431.931 55.3474 432.034C55.6274 432.127 55.9728 432.174 56.3834 432.174C56.8874 432.174 57.2794 432.085 57.5594 431.908C57.8394 431.731 57.9794 431.474 57.9794 431.138C57.9794 430.933 57.9281 430.769 57.8254 430.648C57.7228 430.517 57.5454 430.405 57.2934 430.312C57.0414 430.209 56.6728 430.107 56.1874 430.004C55.3661 429.827 54.7781 429.589 54.4234 429.29C54.0688 428.991 53.8914 428.585 53.8914 428.072C53.8914 427.671 54.0034 427.316 54.2274 427.008C54.4514 426.7 54.7594 426.457 55.1514 426.28C55.5528 426.103 56.0054 426.014 56.5094 426.014C56.8734 426.014 57.2234 426.065 57.5594 426.168C57.9048 426.261 58.2081 426.397 58.4694 426.574C58.7868 426.798 58.9454 427.031 58.9454 427.274C58.9454 427.395 58.9081 427.498 58.8334 427.582C58.7588 427.666 58.6701 427.708 58.5674 427.708C58.4554 427.708 58.2874 427.629 58.0634 427.47C57.8021 427.302 57.5548 427.171 57.3214 427.078C57.0881 426.985 56.7988 426.938 56.4534 426.938C56.0148 426.938 55.6601 427.036 55.3894 427.232C55.1281 427.428 54.9974 427.689 54.9974 428.016C54.9974 428.221 55.0441 428.389 55.1374 428.52C55.2401 428.641 55.4034 428.753 55.6274 428.856C55.8608 428.949 56.1921 429.043 56.6214 429.136C57.2561 429.276 57.7461 429.43 58.0914 429.598C58.4461 429.766 58.6981 429.971 58.8474 430.214C58.9968 430.457 59.0714 430.765 59.0714 431.138C59.0714 431.726 58.8241 432.202 58.3294 432.566C57.8348 432.921 57.1814 433.098 56.3694 433.098ZM70.001 426.406C70.0943 426.182 70.2483 426.07 70.463 426.07C70.603 426.07 70.729 426.117 70.841 426.21C70.953 426.303 71.009 426.42 71.009 426.56C71.009 426.625 70.995 426.695 70.967 426.77L68.643 432.65C68.587 432.771 68.503 432.869 68.391 432.944C68.2883 433.009 68.1716 433.042 68.041 433.042C67.9196 433.042 67.803 433.009 67.691 432.944C67.5883 432.869 67.509 432.771 67.453 432.65L65.521 427.736L63.603 432.65C63.5563 432.771 63.477 432.869 63.365 432.944C63.253 433.009 63.1316 433.042 63.001 433.042C62.8796 433.042 62.763 433.009 62.651 432.944C62.539 432.869 62.455 432.771 62.399 432.65L60.075 426.784C60.047 426.709 60.033 426.644 60.033 426.588C60.033 426.439 60.0936 426.313 60.215 426.21C60.3456 426.107 60.4856 426.056 60.635 426.056C60.859 426.056 61.0176 426.168 61.111 426.392L63.029 431.558L65.003 426.434C65.059 426.313 65.1336 426.219 65.227 426.154C65.3296 426.089 65.437 426.056 65.549 426.056C65.6703 426.056 65.7776 426.089 65.871 426.154C65.9736 426.219 66.0483 426.313 66.095 426.434L68.069 431.544L70.001 426.406ZM75.2081 433.098C74.5641 433.098 73.9947 432.953 73.5001 432.664C73.0147 432.375 72.6367 431.964 72.3661 431.432C72.1047 430.891 71.9741 430.265 71.9741 429.556C71.9741 428.847 72.1047 428.226 72.3661 427.694C72.6367 427.153 73.0147 426.737 73.5001 426.448C73.9947 426.159 74.5641 426.014 75.2081 426.014C75.8521 426.014 76.4214 426.159 76.9161 426.448C77.4107 426.737 77.7887 427.153 78.0501 427.694C78.3207 428.226 78.4561 428.847 78.4561 429.556C78.4561 430.265 78.3207 430.891 78.0501 431.432C77.7887 431.964 77.4107 432.375 76.9161 432.664C76.4214 432.953 75.8521 433.098 75.2081 433.098ZM75.2081 432.16C75.8801 432.16 76.3934 431.941 76.7481 431.502C77.1121 431.054 77.2941 430.405 77.2941 429.556C77.2941 428.725 77.1121 428.086 76.7481 427.638C76.3841 427.181 75.8707 426.952 75.2081 426.952C74.5454 426.952 74.0321 427.181 73.6681 427.638C73.3041 428.086 73.1221 428.725 73.1221 429.556C73.1221 430.396 73.2994 431.04 73.6541 431.488C74.0181 431.936 74.5361 432.16 75.2081 432.16ZM83.5197 426.042C83.9117 426.014 84.1077 426.173 84.1077 426.518C84.1077 426.667 84.0657 426.789 83.9817 426.882C83.8977 426.966 83.753 427.017 83.5477 427.036L83.1277 427.078C82.5024 427.134 82.0357 427.358 81.7277 427.75C81.429 428.133 81.2797 428.585 81.2797 429.108V432.51C81.2797 432.697 81.2284 432.837 81.1257 432.93C81.023 433.023 80.8877 433.07 80.7197 433.07C80.5517 433.07 80.4117 433.023 80.2997 432.93C80.197 432.827 80.1457 432.687 80.1457 432.51V426.602C80.1457 426.425 80.2017 426.289 80.3137 426.196C80.4257 426.093 80.561 426.042 80.7197 426.042C80.869 426.042 80.995 426.093 81.0977 426.196C81.2004 426.289 81.2517 426.42 81.2517 426.588V427.372C81.4477 426.961 81.723 426.649 82.0777 426.434C82.4417 426.219 82.857 426.093 83.3237 426.056L83.5197 426.042ZM90.4185 423.06C90.5959 423.06 90.7359 423.111 90.8385 423.214C90.9412 423.317 90.9925 423.447 90.9925 423.606V432.51C90.9925 432.678 90.9412 432.813 90.8385 432.916C90.7359 433.019 90.5959 433.07 90.4185 433.07C90.2412 433.07 90.1012 433.019 89.9985 432.916C89.9052 432.813 89.8585 432.678 89.8585 432.51V431.754C89.6532 432.183 89.3499 432.515 88.9485 432.748C88.5565 432.981 88.0945 433.098 87.5625 433.098C86.9652 433.098 86.4379 432.949 85.9805 432.65C85.5232 432.351 85.1685 431.936 84.9165 431.404C84.6645 430.863 84.5385 430.237 84.5385 429.528C84.5385 428.828 84.6645 428.212 84.9165 427.68C85.1685 427.148 85.5232 426.737 85.9805 426.448C86.4379 426.159 86.9652 426.014 87.5625 426.014C88.0945 426.014 88.5565 426.131 88.9485 426.364C89.3499 426.597 89.6532 426.929 89.8585 427.358V423.606C89.8585 423.438 89.9052 423.307 89.9985 423.214C90.1012 423.111 90.2412 423.06 90.4185 423.06ZM87.7865 432.16C88.4492 432.16 88.9579 431.936 89.3125 431.488C89.6765 431.031 89.8585 430.387 89.8585 429.556C89.8585 428.725 89.6765 428.086 89.3125 427.638C88.9579 427.19 88.4492 426.966 87.7865 426.966C87.1239 426.966 86.6059 427.19 86.2325 427.638C85.8685 428.086 85.6865 428.716 85.6865 429.528C85.6865 430.359 85.8685 431.007 86.2325 431.474C86.6059 431.931 87.1239 432.16 87.7865 432.16Z" fill="#1565C0"/>
<rect x="30" y="365" width="270" height="37" rx="10" stroke="#1565C0"/>
<rect x="30" y="439" width="270" height="37" rx="10" stroke="#1565C0"/>
<g filter="url(#filter1_d_1_85)">
<rect x="30" y="488" width="40" height="40" rx="5" fill="white"/>
</g>
<path d="M59.8055 506.042H59V506H50V510H55.6515C54.827 512.328 52.6115 514 50 514C46.6865 514 44 511.313 44 508C44 504.687 46.6865 502 50 502C51.5295 502 52.921 502.577 53.9805 503.519L56.809 500.691C55.023 499.026 52.634 498 50 498C44.4775 498 40 502.477 40 508C40 513.523 44.4775 518 50 518C55.5225 518 60 513.523 60 508C60 507.33 59.931 506.675 59.8055 506.042Z" fill="#FFC107"/>
<path d="M41 503.514L44.3577 506C45.2662 503.729 47.4665 502.126 50.0414 502.126C51.6045 502.126 53.0266 502.722 54.1094 503.694L57 500.776C55.1748 499.059 52.7333 498 50.0414 498C46.116 498 42.7118 500.237 41 503.514Z" fill="#FF3D00"/>
<path d="M50.1267 518C52.7747 518 55.1808 517.008 57 515.395L53.8271 512.767C52.7632 513.559 51.4632 513.987 50.1267 513.986C47.4602 513.986 45.1961 512.322 44.3431 510L41 512.521C42.6967 515.77 46.1423 518 50.1267 518Z" fill="#4CAF50"/>
<path d="M58.8055 506.044H58V506H49V510.249H54.6515C54.2571 511.426 53.5467 512.455 52.608 513.208L52.6095 513.207L55.7045 515.989C55.4855 516.2 59 513.436 59 508.124C59 507.412 58.931 506.717 58.8055 506.044Z" fill="#1976D2"/>
</g>
</g>
<path d="M95.8421 137V130.3L109 118.24L105.053 110.2L103.737 100.82L107.684 84.74L102.421 79.38L106.368 70L93.7039 75.5275L59 106.18V137H95.8421Z" fill="#F9B485"/>
<path d="M55 53H96V117H55V53Z" fill="#169BD6"/>
<path d="M104.031 111.656L92.9011 118.594C91.9936 119.16 91.3493 120.05 91.1063 121.074C90.8632 122.098 91.0408 123.174 91.6009 124.072C92.1448 124.943 93.0081 125.58 94.0155 125.853C95.0229 126.127 96.0991 126.015 97.0255 125.542L108.709 119.577C109.211 119.32 109.656 118.968 110.018 118.542C110.38 118.115 110.651 117.623 110.816 117.093C110.981 116.563 111.036 116.007 110.978 115.456C110.92 114.905 110.75 114.371 110.478 113.885L110.08 113.172C109.799 112.67 109.416 112.23 108.954 111.879C108.491 111.528 107.96 111.273 107.393 111.131C106.826 110.989 106.235 110.962 105.656 111.052C105.078 111.142 104.525 111.348 104.031 111.656Z" fill="#FDCAA7"/>
<path d="M105.199 93.178L98.5505 104.771C98.0084 105.717 97.8595 106.836 98.1358 107.889C98.412 108.943 99.0915 109.846 100.028 110.407C100.938 110.951 102.022 111.129 103.059 110.906C104.096 110.684 105.009 110.076 105.613 109.206L113.229 98.2446C113.557 97.773 113.787 97.2411 113.906 96.6798C114.025 96.1186 114.031 95.5393 113.923 94.9758C113.815 94.4123 113.596 93.8759 113.277 93.3978C112.959 92.9198 112.548 92.5097 112.069 92.1916L111.367 91.7248C110.872 91.3964 110.315 91.1728 109.73 91.0681C109.145 90.9633 108.545 90.9796 107.966 91.1159C107.388 91.2522 106.844 91.5056 106.368 91.8604C105.892 92.2151 105.494 92.6636 105.199 93.178Z" fill="#FDCAA7"/>
<path opacity="0.3" d="M57 53L96 114V53H57Z" fill="#FAFBFC"/>
<path d="M101.199 81.1769L94.5505 92.7713C94.0084 93.7166 93.8595 94.836 94.1358 95.8894C94.412 96.9428 95.0915 97.8465 96.0284 98.4067C96.9382 98.9506 98.0216 99.1293 99.0588 98.9064C100.096 98.6835 101.009 98.0758 101.613 97.2065L109.229 86.2449C109.557 85.7733 109.787 85.2414 109.906 84.6801C110.025 84.1189 110.031 83.5396 109.923 82.9761C109.815 82.4127 109.596 81.8762 109.277 81.3982C108.959 80.9202 108.549 80.5101 108.069 80.192L107.367 79.7252C106.872 79.3967 106.315 79.1731 105.73 79.0682C105.145 78.9634 104.545 78.9795 103.967 79.1157C103.388 79.2518 102.844 79.5051 102.368 79.8596C101.892 80.2142 101.494 80.6626 101.199 81.1769Z" fill="#FDCAA7"/>
<path d="M101.199 65.1767L94.5505 76.7712C94.0084 77.7165 93.8595 78.8359 94.1358 79.8893C94.412 80.9428 95.0915 81.8465 96.0284 82.4067C96.9382 82.9506 98.0217 83.1293 99.0588 82.9064C100.096 82.6835 101.009 82.0758 101.613 81.2065L109.229 70.2446C109.557 69.7731 109.787 69.2412 109.906 68.6801C110.025 68.119 110.031 67.5398 109.923 66.9764C109.815 66.413 109.596 65.8767 109.278 65.3987C108.96 64.9207 108.549 64.5106 108.07 64.1924L107.368 63.7256C106.873 63.397 106.316 63.1733 105.731 63.0683C105.146 62.9634 104.546 62.9795 103.967 63.1155C103.389 63.2516 102.844 63.5048 102.368 63.8594C101.892 64.214 101.494 64.6624 101.199 65.1767Z" fill="#FDCAA7"/>
<path d="M91 67H79L75 71V59H91V67Z" fill="#4EDDDD"/>
<path d="M77 85C79.7614 85 82 82.7614 82 80C82 77.2386 79.7614 75 77 75C74.2386 75 72 77.2386 72 80C72 82.7614 74.2386 85 77 85Z" fill="#FDCAA7"/>
<path d="M91 107V99.1079C91 93.5254 85.2678 89 80.6154 89H74.3846C69.7322 89 64 93.5254 64 99.1079V107H91Z" fill="#F7D74F"/>
<path d="M59 59H69V69H59V59Z" fill="#F7D74F"/>
<path opacity="0.2" d="M57.4317 102.163V84.7333C57.4317 84.7333 57.4304 81.0498 55 78V118H81C78.0291 112.622 71.1697 103.879 57.4317 102.163Z" fill="#020202"/>
<path d="M58.8571 137V127.717L43 113.13V76C54.8929 76 54.8929 86.6087 54.8929 86.6087V103.848C74.7143 106.334 80 123.739 80 123.739V137H58.8571Z" fill="#FDCAA7"/>
<path d="M90.7143 58H75.2857C74.9447 58 74.6177 58.1437 74.3766 58.3994C74.1355 58.6551 74 59.002 74 59.3636V71.6363C74 71.906 74.0754 72.1697 74.2167 72.3939C74.3579 72.6182 74.5587 72.793 74.7937 72.8962C75.0286 72.9994 75.2871 73.0264 75.5366 72.9738C75.786 72.9212 76.0151 72.7913 76.1949 72.6006L79.6753 68.9091H90.7143C91.0553 68.9091 91.3823 68.7654 91.6234 68.5097C91.8645 68.2539 92 67.9071 92 67.5454V59.3636C92 59.002 91.8645 58.6551 91.6234 58.3994C91.3823 58.1437 91.0553 58 90.7143 58ZM89.4286 66.1818H79.1429C78.974 66.1818 78.8068 66.2171 78.6508 66.2856C78.4948 66.3541 78.3531 66.4545 78.2337 66.5812L76.5714 68.3443V60.7273H89.4286V66.1818Z" fill="black"/>
<path d="M76.5 87C77.7856 87 79.0423 86.6188 80.1112 85.9046C81.1801 85.1903 82.0132 84.1752 82.5052 82.9874C82.9972 81.7997 83.1259 80.4928 82.8751 79.2319C82.6243 77.971 82.0052 76.8129 81.0962 75.9038C80.1871 74.9948 79.029 74.3757 77.7681 74.1249C76.5072 73.8741 75.2003 74.0028 74.0126 74.4948C72.8248 74.9868 71.8097 75.8199 71.0954 76.8888C70.3812 77.9577 70 79.2144 70 80.5C70.002 82.2233 70.6874 83.8755 71.906 85.094C73.1245 86.3126 74.7767 86.998 76.5 87ZM76.5 76.6811C77.2553 76.6811 77.9936 76.905 78.6216 77.3246C79.2496 77.7442 79.739 78.3406 80.0281 79.0384C80.3171 79.7362 80.3927 80.504 80.2454 81.2448C80.0981 81.9855 79.7344 82.666 79.2003 83.2C78.6663 83.7341 77.9859 84.0978 77.2451 84.2452C76.5043 84.3926 75.7365 84.317 75.0387 84.028C74.3409 83.7389 73.7445 83.2495 73.3249 82.6215C72.9053 81.9936 72.6813 81.2553 72.6812 80.5C72.6824 79.4875 73.085 78.5168 73.8009 77.8009C74.5169 77.085 75.4875 76.6822 76.5 76.6811Z" fill="black"/>
<path d="M79.5421 88H73.4579C68.2682 88 62 93.2761 62 99.8283H64.6349C64.6349 94.9252 69.4861 90.7239 73.4579 90.7239H79.5421C84.2938 90.7239 88.3651 95.73 88.3651 99.8283V108H91V99.8283C91 93.2762 84.7318 88 79.5421 88Z" fill="black"/>
<path d="M69 68.6667V59.3333C69 58.9797 68.8595 58.6406 68.6095 58.3905C68.3594 58.1405 68.0203 58 67.6667 58H58.3333C57.9797 58 57.6406 58.1405 57.3905 58.3905C57.1405 58.6406 57 58.9797 57 59.3333V68.6667C57 69.0203 57.1405 69.3594 57.3905 69.6095C57.6406 69.8595 57.9797 70 58.3333 70H67.6667C68.0203 70 68.3594 69.8595 68.6095 69.6095C68.8595 69.3594 69 69.0203 69 68.6667ZM66.3333 67.3333H59.6667V60.6667H66.3333V67.3333Z" fill="black"/>
<path d="M96.6847 52H55.3377C54.984 52 54.6447 52.1399 54.3946 52.389C54.1445 52.6381 54.004 52.9759 54.004 53.3281V79.0863C52.181 76.783 48.9658 74.5781 43.3338 74.5781C42.98 74.5781 42.6408 74.7181 42.3907 74.9671C42.1405 75.2162 42 75.554 42 75.9062V113.094C41.9999 113.278 42.0383 113.46 42.1128 113.629C42.1873 113.797 42.2961 113.949 42.4325 114.073L58.0053 128.287V137H60.6728V127.703C60.6729 127.519 60.6345 127.337 60.56 127.168C60.4856 126.999 60.3767 126.848 60.2404 126.724L44.6675 112.51V77.2842C48.3863 77.5686 51.0598 79.0791 52.6262 81.7854C53.4474 83.2401 53.919 84.8646 54.004 86.5312V103.797C54.004 104.121 54.1227 104.433 54.3379 104.676C54.553 104.918 54.8498 105.075 55.1723 105.115C63.0788 106.099 69.5514 109.576 74.41 115.449C78.0656 119.868 79.3912 124.065 79.4042 124.108L81.955 123.332C81.9167 123.206 81.2808 121.173 79.6899 118.406H91.2816C90.714 119.211 90.3795 120.155 90.3147 121.136C90.2499 122.118 90.4572 123.098 90.914 123.969C91.3709 124.841 92.0596 125.571 92.9049 126.079C93.7502 126.587 94.7196 126.854 95.7071 126.851C96.5737 126.851 97.4274 126.642 98.195 126.242L100.799 124.885L95.7921 129.372C95.6532 129.497 95.5421 129.649 95.4662 129.819C95.3902 129.989 95.3509 130.173 95.3509 130.359V137H98.0185V130.951L110.684 119.601C111.674 118.783 112.347 117.648 112.59 116.389C112.832 115.131 112.628 113.829 112.012 112.704L111.619 111.987C111.148 111.126 110.456 110.405 109.612 109.9C108.768 109.395 107.804 109.123 106.82 109.113L114.015 98.7648C114.434 98.1619 114.728 97.482 114.88 96.7646C115.032 96.0473 115.04 95.307 114.902 94.5868C114.763 93.8667 114.483 93.1811 114.076 92.5702C113.669 91.9592 113.143 91.4351 112.531 91.0284L111.848 90.5754C110.693 89.8118 109.293 89.5051 107.923 89.7153L109.91 86.8565C110.33 86.2536 110.624 85.5736 110.776 84.8562C110.929 84.1388 110.936 83.3983 110.798 82.6781C110.66 81.9578 110.379 81.2722 109.972 80.6612C109.565 80.0502 109.039 79.526 108.427 79.1193L107.744 78.6663C106.875 78.0908 105.86 77.7706 104.816 77.7424L109.91 70.4161C110.329 69.8132 110.623 69.1332 110.776 68.4158C110.928 67.6984 110.935 66.958 110.797 66.2377C110.659 65.5175 110.378 64.8318 109.971 64.2208C109.564 63.6098 109.039 63.0857 108.426 62.679L107.745 62.2249C107.112 61.8049 106.4 61.519 105.652 61.3849C104.903 61.2507 104.135 61.2713 103.395 61.4452C102.655 61.6192 101.959 61.9428 101.35 62.396C100.741 62.8492 100.232 63.4223 99.8548 64.0796L98.0185 67.2794V53.3281C98.0185 52.9759 97.878 52.6381 97.6278 52.389C97.3777 52.1399 97.0385 52 96.6847 52V52ZM76.5436 113.851C73.0247 109.566 66.7563 104.229 56.6715 102.643V54.6562H95.3509V71.928L93.3946 75.3371C92.7026 76.5584 92.5147 77.9997 92.8707 79.3564C93.2267 80.7131 94.0987 81.8787 95.3023 82.6066C96.137 83.106 97.0926 83.3694 98.0663 83.3687C98.1185 83.3687 98.1705 83.3655 98.2227 83.364L93.3946 91.7773C92.7026 92.9986 92.5147 94.4399 92.8707 95.7966C93.2267 97.1533 94.0987 98.3189 95.3023 99.0468C95.3189 99.0565 95.3356 99.0634 95.3509 99.0736V115.33L94.6906 115.75H77.9914C77.5519 115.129 77.0711 114.493 76.5436 113.851ZM98.0185 109.759C98.8165 110.734 99.936 111.395 101.178 111.625L98.0185 113.634V109.759ZM98.0185 102.78V99.8074C98.0352 99.8074 98.0503 99.8088 98.0663 99.8088C98.6941 99.8083 99.3171 99.6997 99.9078 99.4878L98.0185 102.78ZM107.467 111.857C107.85 111.953 108.209 112.127 108.52 112.369C108.832 112.61 109.089 112.914 109.277 113.26L109.67 113.977C109.973 114.53 110.085 115.167 109.987 115.79C109.89 116.412 109.589 116.986 109.131 117.421L109.13 117.419L108.952 117.579C108.804 117.697 108.646 117.801 108.478 117.888L96.959 123.888C96.3365 124.213 95.6122 124.285 94.9373 124.091C94.2624 123.896 93.6889 123.45 93.3367 122.845C92.9844 122.239 92.8806 121.522 93.0467 120.842C93.2129 120.162 93.6363 119.573 94.2286 119.196L105.202 112.217C105.534 112.004 105.907 111.862 106.297 111.8C106.687 111.738 107.085 111.757 107.467 111.857ZM108.782 92.3016C109.347 92.3022 109.9 92.4703 110.369 92.7846L111.052 93.2376C111.37 93.4487 111.642 93.7207 111.853 94.0378C112.065 94.3549 112.21 94.7107 112.282 95.0844C112.354 95.4582 112.35 95.8424 112.271 96.2147C112.192 96.587 112.039 96.9398 111.821 97.2527L104.422 107.896C104.022 108.471 103.415 108.871 102.726 109.011C102.037 109.152 101.321 109.022 100.727 108.649C100.132 108.275 99.7051 107.688 99.5351 107.009C99.3651 106.33 99.4651 105.612 99.8142 105.004L106.274 93.747C106.469 93.4047 106.732 93.1065 107.049 92.8711C107.365 92.6358 107.727 92.4685 108.112 92.3798C108.331 92.328 108.556 92.3018 108.782 92.3016H108.782ZM106.948 81.328C107.266 81.5391 107.538 81.8111 107.749 82.1282C107.961 82.4453 108.106 82.8011 108.178 83.1748C108.25 83.5486 108.246 83.9328 108.167 84.3051C108.088 84.6774 107.935 85.0302 107.717 85.3431L100.318 95.9862C99.9179 96.5614 99.3105 96.9606 98.6221 97.1006C97.9338 97.2407 97.2178 97.1106 96.6234 96.7376C96.0291 96.3646 95.6023 95.7775 95.4322 95.0987C95.2621 94.42 95.3618 93.702 95.7104 93.0947L102.171 81.8373C102.366 81.4962 102.63 81.1987 102.946 80.9635C103.262 80.7283 103.624 80.5603 104.008 80.47C104.392 80.3797 104.79 80.369 105.179 80.4386C105.567 80.5081 105.937 80.6565 106.265 80.8744L106.948 81.328ZM102.171 65.3975C102.366 65.0563 102.631 64.7589 102.947 64.5236C103.263 64.2884 103.624 64.1204 104.008 64.0301C104.392 63.9398 104.791 63.9291 105.179 63.9987C105.567 64.0683 105.937 64.2166 106.265 64.4346L106.948 64.8876C107.266 65.0987 107.538 65.3707 107.75 65.6878C107.961 66.0049 108.107 66.3607 108.178 66.7345C108.25 67.1082 108.246 67.4925 108.167 67.8647C108.088 68.237 107.935 68.5899 107.718 68.9027L100.318 79.5458C99.9181 80.121 99.3106 80.5203 98.6223 80.6603C97.934 80.8003 97.2179 80.6702 96.6236 80.2972C96.0292 79.9242 95.6025 79.3371 95.4324 78.6583C95.2623 77.9796 95.3619 77.2617 95.7106 76.6543L102.171 65.3975Z" fill="black"/>
<path fill-rule="evenodd" clip-rule="evenodd" d="M-1 -3H359V21H-1V-3Z" fill="#0D47A1"/>
<g opacity="0.9">
<path d="M304.696 15H303.042V7.00879L300.602 7.84277V6.44141L304.484 5.0127H304.696V15ZM314.643 10.8096C314.643 12.2406 314.374 13.3206 313.836 14.0498C313.303 14.7744 312.489 15.1367 311.396 15.1367C310.32 15.1367 309.509 14.7835 308.962 14.0771C308.42 13.3662 308.142 12.3158 308.128 10.9258V9.20312C308.128 7.77214 308.395 6.69889 308.928 5.9834C309.466 5.2679 310.284 4.91016 311.382 4.91016C312.471 4.91016 313.282 5.25879 313.816 5.95605C314.353 6.65332 314.629 7.69694 314.643 9.08691V10.8096ZM312.982 8.9502C312.982 8.01595 312.854 7.33236 312.599 6.89941C312.344 6.46191 311.938 6.24316 311.382 6.24316C310.84 6.24316 310.441 6.45052 310.186 6.86523C309.93 7.27539 309.796 7.91797 309.782 8.79297V11.0488C309.782 11.9785 309.912 12.6712 310.172 13.127C310.432 13.5827 310.84 13.8105 311.396 13.8105C311.929 13.8105 312.323 13.6009 312.578 13.1816C312.833 12.7578 312.968 12.097 312.982 11.1992V8.9502ZM317.22 13.25C317.53 13.25 317.769 13.3389 317.938 13.5166C318.106 13.6898 318.191 13.9085 318.191 14.1729C318.191 14.4326 318.106 14.6491 317.938 14.8223C317.769 14.9909 317.53 15.0752 317.22 15.0752C316.924 15.0752 316.689 14.9909 316.516 14.8223C316.343 14.6536 316.256 14.4372 316.256 14.1729C316.256 13.9085 316.34 13.6898 316.509 13.5166C316.678 13.3389 316.914 13.25 317.22 13.25ZM317.22 7.44629C317.53 7.44629 317.769 7.53516 317.938 7.71289C318.106 7.88607 318.191 8.10482 318.191 8.36914C318.191 8.62891 318.106 8.84538 317.938 9.01855C317.769 9.18717 317.53 9.27148 317.22 9.27148C316.924 9.27148 316.689 9.18717 316.516 9.01855C316.343 8.84993 316.256 8.63346 316.256 8.36914C316.256 8.10482 316.34 7.88607 316.509 7.71289C316.678 7.53516 316.914 7.44629 317.22 7.44629ZM326.524 15H319.831V13.8584L323.147 10.2422C323.625 9.70898 323.965 9.26465 324.165 8.90918C324.37 8.54915 324.473 8.18913 324.473 7.8291C324.473 7.35514 324.338 6.97233 324.069 6.68066C323.805 6.389 323.447 6.24316 322.996 6.24316C322.458 6.24316 322.041 6.40723 321.745 6.73535C321.449 7.06348 321.301 7.51237 321.301 8.08203H319.64C319.64 7.47591 319.776 6.93132 320.05 6.44824C320.328 5.96061 320.722 5.58236 321.233 5.31348C321.747 5.0446 322.34 4.91016 323.01 4.91016C323.976 4.91016 324.737 5.15397 325.293 5.6416C325.854 6.12467 326.134 6.7946 326.134 7.65137C326.134 8.14811 325.993 8.66992 325.71 9.2168C325.432 9.75911 324.974 10.3766 324.336 11.0693L321.902 13.6738H326.524V15ZM334.057 7.67188C334.057 8.15951 333.931 8.59473 333.681 8.97754C333.43 9.35579 333.088 9.6543 332.655 9.87305C333.175 10.1146 333.574 10.445 333.852 10.8643C334.134 11.2835 334.275 11.7575 334.275 12.2861C334.275 13.1611 333.979 13.8561 333.387 14.3711C332.794 14.8815 332.006 15.1367 331.022 15.1367C330.033 15.1367 329.24 14.8792 328.643 14.3643C328.05 13.8493 327.754 13.1566 327.754 12.2861C327.754 11.7529 327.895 11.2744 328.178 10.8506C328.46 10.4268 328.857 10.1009 329.367 9.87305C328.939 9.6543 328.599 9.35579 328.349 8.97754C328.103 8.59473 327.98 8.15951 327.98 7.67188C327.98 6.82422 328.253 6.15202 328.8 5.65527C329.347 5.15853 330.085 4.91016 331.015 4.91016C331.949 4.91016 332.69 5.15853 333.236 5.65527C333.783 6.15202 334.057 6.82422 334.057 7.67188ZM332.614 12.2041C332.614 11.7119 332.466 11.3154 332.17 11.0146C331.878 10.7093 331.491 10.5566 331.008 10.5566C330.525 10.5566 330.137 10.707 329.846 11.0078C329.559 11.3086 329.415 11.7074 329.415 12.2041C329.415 12.6917 329.556 13.0814 329.839 13.373C330.126 13.6647 330.52 13.8105 331.022 13.8105C331.523 13.8105 331.913 13.6693 332.191 13.3867C332.473 13.1042 332.614 12.71 332.614 12.2041ZM332.402 7.7334C332.402 7.30046 332.277 6.94499 332.026 6.66699C331.776 6.38444 331.439 6.24316 331.015 6.24316C330.591 6.24316 330.256 6.3776 330.01 6.64648C329.764 6.91081 329.641 7.27311 329.641 7.7334C329.641 8.18913 329.764 8.55143 330.01 8.82031C330.261 9.08919 330.598 9.22363 331.022 9.22363C331.445 9.22363 331.78 9.08919 332.026 8.82031C332.277 8.55143 332.402 8.18913 332.402 7.7334Z" fill="white"/>
</g>
<path fill-rule="evenodd" clip-rule="evenodd" d="M289 3.875V3L286 3V3.875H283V17H292V3.875H289Z" fill="white"/>
<path fill-rule="evenodd" clip-rule="evenodd" d="M260 17H274V3L260 17Z" fill="white"/>
<path fill-rule="evenodd" clip-rule="evenodd" d="M240 6.01593L249 17L258 6.01593C255.495 4.12256 252.378 3 249 3C245.621 3 242.504 4.12256 240 6.01593Z" fill="white"/>
<g filter="url(#filter2_d_1_85)">
<rect x="207.5" y="612.5" width="125" height="54" rx="6.5" stroke="white"/>
</g>
<g filter="url(#filter3_d_1_85)">
<rect x="207.5" y="675.5" width="125" height="54" rx="6.5" stroke="white"/>
</g>
<path d="M239.613 710.176C238.513 710.176 237.457 710.015 236.445 709.692C235.447 709.355 234.648 708.907 234.047 708.35C233.827 708.145 233.717 707.888 233.717 707.58C233.717 707.375 233.775 707.199 233.893 707.052C234.01 706.891 234.149 706.81 234.311 706.81C234.501 706.81 234.707 706.891 234.927 707.052C236.291 708.108 237.845 708.636 239.591 708.636C240.852 708.636 241.82 708.394 242.495 707.91C243.169 707.426 243.507 706.737 243.507 705.842C243.507 705.329 243.345 704.918 243.023 704.61C242.7 704.287 242.275 704.031 241.747 703.84C241.219 703.649 240.507 703.451 239.613 703.246C238.41 702.967 237.42 702.674 236.643 702.366C235.88 702.058 235.257 701.618 234.773 701.046C234.303 700.474 234.069 699.726 234.069 698.802C234.069 697.922 234.303 697.145 234.773 696.47C235.257 695.781 235.924 695.253 236.775 694.886C237.64 694.505 238.623 694.314 239.723 694.314C240.749 694.314 241.703 694.475 242.583 694.798C243.477 695.106 244.225 695.553 244.827 696.14C245.061 696.375 245.179 696.631 245.179 696.91C245.179 697.115 245.12 697.299 245.003 697.46C244.885 697.607 244.746 697.68 244.585 697.68C244.423 697.68 244.211 697.599 243.947 697.438C243.228 696.851 242.561 696.441 241.945 696.206C241.329 695.971 240.588 695.854 239.723 695.854C238.505 695.854 237.559 696.111 236.885 696.624C236.21 697.123 235.873 697.827 235.873 698.736C235.873 699.513 236.166 700.1 236.753 700.496C237.354 700.877 238.271 701.215 239.503 701.508C240.837 701.831 241.886 702.131 242.649 702.41C243.411 702.674 244.042 703.077 244.541 703.62C245.054 704.163 245.311 704.889 245.311 705.798C245.311 706.663 245.069 707.426 244.585 708.086C244.115 708.746 243.448 709.259 242.583 709.626C241.717 709.993 240.727 710.176 239.613 710.176ZM248.549 710.11C248.285 710.11 248.065 710.037 247.889 709.89C247.728 709.729 247.647 709.509 247.647 709.23V699.946C247.647 699.667 247.728 699.455 247.889 699.308C248.065 699.147 248.285 699.066 248.549 699.066C248.813 699.066 249.026 699.147 249.187 699.308C249.348 699.455 249.429 699.667 249.429 699.946V709.23C249.429 709.523 249.348 709.743 249.187 709.89C249.026 710.037 248.813 710.11 248.549 710.11ZM248.549 696.756C248.197 696.756 247.911 696.653 247.691 696.448C247.471 696.243 247.361 695.971 247.361 695.634C247.361 695.311 247.471 695.047 247.691 694.842C247.911 694.637 248.197 694.534 248.549 694.534C248.901 694.534 249.187 694.637 249.407 694.842C249.627 695.047 249.737 695.311 249.737 695.634C249.737 695.971 249.627 696.243 249.407 696.448C249.187 696.653 248.901 696.756 248.549 696.756ZM261.12 699.066C261.399 699.066 261.619 699.147 261.78 699.308C261.942 699.469 262.022 699.682 262.022 699.946V709.274C262.022 710.873 261.612 712.075 260.79 712.882C259.969 713.703 258.752 714.114 257.138 714.114C255.569 714.114 254.264 713.806 253.222 713.19C252.694 712.897 252.43 712.559 252.43 712.178C252.43 711.973 252.482 711.804 252.584 711.672C252.702 711.54 252.848 711.474 253.024 711.474C253.171 711.474 253.435 711.577 253.816 711.782C254.33 712.046 254.836 712.259 255.334 712.42C255.833 712.581 256.427 712.662 257.116 712.662C258.158 712.662 258.942 712.383 259.47 711.826C259.998 711.283 260.262 710.484 260.262 709.428V707.536C259.954 708.225 259.478 708.753 258.832 709.12C258.202 709.487 257.454 709.67 256.588 709.67C255.65 709.67 254.814 709.45 254.08 709.01C253.362 708.57 252.797 707.947 252.386 707.14C251.99 706.333 251.792 705.402 251.792 704.346C251.792 703.29 251.99 702.359 252.386 701.552C252.797 700.745 253.362 700.122 254.08 699.682C254.814 699.242 255.65 699.022 256.588 699.022C257.439 699.022 258.18 699.205 258.81 699.572C259.441 699.939 259.918 700.459 260.24 701.134V699.946C260.24 699.682 260.314 699.469 260.46 699.308C260.622 699.147 260.842 699.066 261.12 699.066ZM256.94 708.196C257.967 708.196 258.774 707.859 259.36 707.184C259.947 706.495 260.24 705.549 260.24 704.346C260.24 703.158 259.947 702.227 259.36 701.552C258.788 700.863 257.982 700.518 256.94 700.518C255.899 700.518 255.078 700.863 254.476 701.552C253.89 702.227 253.596 703.158 253.596 704.346C253.596 705.549 253.89 706.495 254.476 707.184C255.078 707.859 255.899 708.196 256.94 708.196ZM270.381 699.022C272.947 699.022 274.231 700.437 274.231 703.268V709.23C274.231 709.509 274.15 709.729 273.989 709.89C273.842 710.037 273.629 710.11 273.351 710.11C273.072 710.11 272.852 710.037 272.691 709.89C272.529 709.729 272.449 709.509 272.449 709.23V703.378C272.449 702.381 272.251 701.655 271.855 701.2C271.473 700.745 270.857 700.518 270.007 700.518C269.024 700.518 268.239 700.819 267.653 701.42C267.066 702.021 266.773 702.835 266.773 703.862V709.23C266.773 709.509 266.692 709.729 266.531 709.89C266.384 710.037 266.171 710.11 265.893 710.11C265.614 710.11 265.394 710.037 265.233 709.89C265.071 709.729 264.991 709.509 264.991 709.23V699.946C264.991 699.682 265.071 699.469 265.233 699.308C265.394 699.147 265.614 699.066 265.893 699.066C266.157 699.066 266.362 699.147 266.509 699.308C266.67 699.469 266.751 699.675 266.751 699.924V701.046C267.103 700.386 267.594 699.887 268.225 699.55C268.855 699.198 269.574 699.022 270.381 699.022ZM288.821 710.176C286.797 710.176 285.264 709.648 284.223 708.592C283.181 707.536 282.661 705.981 282.661 703.928V695.304C282.661 695.025 282.741 694.805 282.903 694.644C283.064 694.468 283.284 694.38 283.563 694.38C283.827 694.38 284.039 694.468 284.201 694.644C284.362 694.805 284.443 695.025 284.443 695.304V704.082C284.443 705.593 284.809 706.729 285.543 707.492C286.291 708.255 287.383 708.636 288.821 708.636C290.258 708.636 291.343 708.255 292.077 707.492C292.81 706.729 293.177 705.593 293.177 704.082V695.304C293.177 695.025 293.257 694.805 293.419 694.644C293.595 694.468 293.815 694.38 294.079 694.38C294.357 694.38 294.577 694.468 294.739 694.644C294.9 694.805 294.981 695.025 294.981 695.304V703.928C294.981 705.967 294.453 707.521 293.397 708.592C292.355 709.648 290.83 710.176 288.821 710.176ZM303.487 699.022C304.425 699.022 305.254 699.257 305.973 699.726C306.691 700.195 307.249 700.855 307.645 701.706C308.041 702.542 308.239 703.517 308.239 704.632C308.239 705.747 308.041 706.722 307.645 707.558C307.249 708.379 306.691 709.017 305.973 709.472C305.269 709.927 304.44 710.154 303.487 710.154C302.651 710.154 301.917 709.971 301.287 709.604C300.671 709.237 300.201 708.717 299.879 708.042V713.212C299.879 713.476 299.798 713.681 299.637 713.828C299.49 713.989 299.277 714.07 298.999 714.07C298.72 714.07 298.5 713.989 298.339 713.828C298.177 713.667 298.097 713.461 298.097 713.212V699.946C298.097 699.682 298.177 699.469 298.339 699.308C298.5 699.147 298.72 699.066 298.999 699.066C299.277 699.066 299.49 699.147 299.637 699.308C299.798 699.469 299.879 699.682 299.879 699.946V701.134C300.201 700.459 300.671 699.939 301.287 699.572C301.917 699.205 302.651 699.022 303.487 699.022ZM303.135 708.68C304.176 708.68 304.983 708.328 305.555 707.624C306.127 706.92 306.413 705.923 306.413 704.632C306.413 703.341 306.127 702.337 305.555 701.618C304.983 700.885 304.176 700.518 303.135 700.518C302.093 700.518 301.287 700.87 300.715 701.574C300.157 702.278 299.879 703.283 299.879 704.588C299.879 705.893 300.157 706.905 300.715 707.624C301.287 708.328 302.093 708.68 303.135 708.68Z" fill="white"/>
<path d="M244.909 647.176C243.809 647.176 242.753 647.015 241.741 646.692C240.743 646.355 239.944 645.907 239.343 645.35C239.123 645.145 239.013 644.888 239.013 644.58C239.013 644.375 239.071 644.199 239.189 644.052C239.306 643.891 239.445 643.81 239.607 643.81C239.797 643.81 240.003 643.891 240.223 644.052C241.587 645.108 243.141 645.636 244.887 645.636C246.148 645.636 247.116 645.394 247.791 644.91C248.465 644.426 248.803 643.737 248.803 642.842C248.803 642.329 248.641 641.918 248.319 641.61C247.996 641.287 247.571 641.031 247.043 640.84C246.515 640.649 245.803 640.451 244.909 640.246C243.706 639.967 242.716 639.674 241.939 639.366C241.176 639.058 240.553 638.618 240.069 638.046C239.599 637.474 239.365 636.726 239.365 635.802C239.365 634.922 239.599 634.145 240.069 633.47C240.553 632.781 241.22 632.253 242.071 631.886C242.936 631.505 243.919 631.314 245.019 631.314C246.045 631.314 246.999 631.475 247.879 631.798C248.773 632.106 249.521 632.553 250.123 633.14C250.357 633.375 250.475 633.631 250.475 633.91C250.475 634.115 250.416 634.299 250.299 634.46C250.181 634.607 250.042 634.68 249.881 634.68C249.719 634.68 249.507 634.599 249.243 634.438C248.524 633.851 247.857 633.441 247.241 633.206C246.625 632.971 245.884 632.854 245.019 632.854C243.801 632.854 242.855 633.111 242.181 633.624C241.506 634.123 241.169 634.827 241.169 635.736C241.169 636.513 241.462 637.1 242.049 637.496C242.65 637.877 243.567 638.215 244.799 638.508C246.133 638.831 247.182 639.131 247.945 639.41C248.707 639.674 249.338 640.077 249.837 640.62C250.35 641.163 250.607 641.889 250.607 642.798C250.607 643.663 250.365 644.426 249.881 645.086C249.411 645.746 248.744 646.259 247.879 646.626C247.013 646.993 246.023 647.176 244.909 647.176ZM253.845 647.11C253.581 647.11 253.361 647.037 253.185 646.89C253.023 646.729 252.943 646.509 252.943 646.23V636.946C252.943 636.667 253.023 636.455 253.185 636.308C253.361 636.147 253.581 636.066 253.845 636.066C254.109 636.066 254.321 636.147 254.483 636.308C254.644 636.455 254.725 636.667 254.725 636.946V646.23C254.725 646.523 254.644 646.743 254.483 646.89C254.321 647.037 254.109 647.11 253.845 647.11ZM253.845 633.756C253.493 633.756 253.207 633.653 252.987 633.448C252.767 633.243 252.657 632.971 252.657 632.634C252.657 632.311 252.767 632.047 252.987 631.842C253.207 631.637 253.493 631.534 253.845 631.534C254.197 631.534 254.483 631.637 254.703 631.842C254.923 632.047 255.033 632.311 255.033 632.634C255.033 632.971 254.923 633.243 254.703 633.448C254.483 633.653 254.197 633.756 253.845 633.756ZM266.416 636.066C266.695 636.066 266.915 636.147 267.076 636.308C267.237 636.469 267.318 636.682 267.318 636.946V646.274C267.318 647.873 266.907 649.075 266.086 649.882C265.265 650.703 264.047 651.114 262.434 651.114C260.865 651.114 259.559 650.806 258.518 650.19C257.99 649.897 257.726 649.559 257.726 649.178C257.726 648.973 257.777 648.804 257.88 648.672C257.997 648.54 258.144 648.474 258.32 648.474C258.467 648.474 258.731 648.577 259.112 648.782C259.625 649.046 260.131 649.259 260.63 649.42C261.129 649.581 261.723 649.662 262.412 649.662C263.453 649.662 264.238 649.383 264.766 648.826C265.294 648.283 265.558 647.484 265.558 646.428V644.536C265.25 645.225 264.773 645.753 264.128 646.12C263.497 646.487 262.749 646.67 261.884 646.67C260.945 646.67 260.109 646.45 259.376 646.01C258.657 645.57 258.093 644.947 257.682 644.14C257.286 643.333 257.088 642.402 257.088 641.346C257.088 640.29 257.286 639.359 257.682 638.552C258.093 637.745 258.657 637.122 259.376 636.682C260.109 636.242 260.945 636.022 261.884 636.022C262.735 636.022 263.475 636.205 264.106 636.572C264.737 636.939 265.213 637.459 265.536 638.134V636.946C265.536 636.682 265.609 636.469 265.756 636.308C265.917 636.147 266.137 636.066 266.416 636.066ZM262.236 645.196C263.263 645.196 264.069 644.859 264.656 644.184C265.243 643.495 265.536 642.549 265.536 641.346C265.536 640.158 265.243 639.227 264.656 638.552C264.084 637.863 263.277 637.518 262.236 637.518C261.195 637.518 260.373 637.863 259.772 638.552C259.185 639.227 258.892 640.158 258.892 641.346C258.892 642.549 259.185 643.495 259.772 644.184C260.373 644.859 261.195 645.196 262.236 645.196ZM275.677 636.022C278.243 636.022 279.527 637.437 279.527 640.268V646.23C279.527 646.509 279.446 646.729 279.285 646.89C279.138 647.037 278.925 647.11 278.647 647.11C278.368 647.11 278.148 647.037 277.987 646.89C277.825 646.729 277.745 646.509 277.745 646.23V640.378C277.745 639.381 277.547 638.655 277.151 638.2C276.769 637.745 276.153 637.518 275.303 637.518C274.32 637.518 273.535 637.819 272.949 638.42C272.362 639.021 272.069 639.835 272.069 640.862V646.23C272.069 646.509 271.988 646.729 271.827 646.89C271.68 647.037 271.467 647.11 271.189 647.11C270.91 647.11 270.69 647.037 270.529 646.89C270.367 646.729 270.287 646.509 270.287 646.23V636.946C270.287 636.682 270.367 636.469 270.529 636.308C270.69 636.147 270.91 636.066 271.189 636.066C271.453 636.066 271.658 636.147 271.805 636.308C271.966 636.469 272.047 636.675 272.047 636.924V638.046C272.399 637.386 272.89 636.887 273.521 636.55C274.151 636.198 274.87 636.022 275.677 636.022ZM288.968 647.11C288.69 647.11 288.47 647.029 288.308 646.868C288.147 646.692 288.066 646.465 288.066 646.186V632.304C288.066 632.025 288.147 631.805 288.308 631.644C288.47 631.468 288.69 631.38 288.968 631.38C289.247 631.38 289.467 631.468 289.628 631.644C289.79 631.805 289.87 632.025 289.87 632.304V646.186C289.87 646.465 289.79 646.692 289.628 646.868C289.467 647.029 289.247 647.11 288.968 647.11ZM298.491 636.022C301.058 636.022 302.341 637.437 302.341 640.268V646.23C302.341 646.509 302.261 646.729 302.099 646.89C301.953 647.037 301.74 647.11 301.461 647.11C301.183 647.11 300.963 647.037 300.801 646.89C300.64 646.729 300.559 646.509 300.559 646.23V640.378C300.559 639.381 300.361 638.655 299.965 638.2C299.584 637.745 298.968 637.518 298.117 637.518C297.135 637.518 296.35 637.819 295.763 638.42C295.177 639.021 294.883 639.835 294.883 640.862V646.23C294.883 646.509 294.803 646.729 294.641 646.89C294.495 647.037 294.282 647.11 294.003 647.11C293.725 647.11 293.505 647.037 293.343 646.89C293.182 646.729 293.101 646.509 293.101 646.23V636.946C293.101 636.682 293.182 636.469 293.343 636.308C293.505 636.147 293.725 636.066 294.003 636.066C294.267 636.066 294.473 636.147 294.619 636.308C294.781 636.469 294.861 636.675 294.861 636.924V638.046C295.213 637.386 295.705 636.887 296.335 636.55C296.966 636.198 297.685 636.022 298.491 636.022Z" fill="white"/>
</g>
<defs>
<filter id="filter0_d_1_85" x="-30" y="-32" width="439" height="835" filterUnits="userSpaceOnUse" color-interpolation-filters="sRGB">
<feFlood flood-opacity="0" result="BackgroundImageFix"/>
<feColorMatrix in="SourceAlpha" type="matrix" values="0 0 0 0 0 0 0 0 0 0 0 0 0 0 0 0 0 0 127 0" result="hardAlpha"/>
<feOffset dx="10" dy="10"/>
<feGaussianBlur stdDeviation="20"/>
<feColorMatrix type="matrix" values="0 0 0 0 0 0 0 0 0 0 0 0 0 0 0 0 0 0 0.3 0"/>
<feBlend mode="normal" in2="BackgroundImageFix" result="effect1_dropShadow_1_85"/>
<feBlend mode="normal" in="SourceGraphic" in2="effect1_dropShadow_1_85" result="shape"/>
</filter>
<filter id="filter1_d_1_85" x="21" y="479" width="64" height="64" filterUnits="userSpaceOnUse" color-interpolation-filters="sRGB">
<feFlood flood-opacity="0" result="BackgroundImageFix"/>
<feColorMatrix in="SourceAlpha" type="matrix" values="0 0 0 0 0 0 0 0 0 0 0 0 0 0 0 0 0 0 127 0" result="hardAlpha"/>
<feOffset dx="3" dy="3"/>
<feGaussianBlur stdDeviation="6"/>
<feColorMatrix type="matrix" values="0 0 0 0 0 0 0 0 0 0 0 0 0 0 0 0 0 0 0.15 0"/>
<feBlend mode="normal" in2="BackgroundImageFix" result="effect1_dropShadow_1_85"/>
<feBlend mode="normal" in="SourceGraphic" in2="effect1_dropShadow_1_85" result="shape"/>
</filter>
<filter id="filter2_d_1_85" x="203" y="612" width="134" height="63" filterUnits="userSpaceOnUse" color-interpolation-filters="sRGB">
<feFlood flood-opacity="0" result="BackgroundImageFix"/>
<feColorMatrix in="SourceAlpha" type="matrix" values="0 0 0 0 0 0 0 0 0 0 0 0 0 0 0 0 0 0 127 0" result="hardAlpha"/>
<feOffset dy="4"/>
<feGaussianBlur stdDeviation="2"/>
<feColorMatrix type="matrix" values="0 0 0 0 0 0 0 0 0 0 0 0 0 0 0 0 0 0 0.25 0"/>
<feBlend mode="normal" in2="BackgroundImageFix" result="effect1_dropShadow_1_85"/>
<feBlend mode="normal" in="SourceGraphic" in2="effect1_dropShadow_1_85" result="shape"/>
</filter>
<filter id="filter3_d_1_85" x="203" y="675" width="134" height="63" filterUnits="userSpaceOnUse" color-interpolation-filters="sRGB">
<feFlood flood-opacity="0" result="BackgroundImageFix"/>
<feColorMatrix in="SourceAlpha" type="matrix" values="0 0 0 0 0 0 0 0 0 0 0 0 0 0 0 0 0 0 127 0" result="hardAlpha"/>
<feOffset dy="4"/>
<feGaussianBlur stdDeviation="2"/>
<feColorMatrix type="matrix" values="0 0 0 0 0 0 0 0 0 0 0 0 0 0 0 0 0 0 0.25 0"/>
<feBlend mode="normal" in2="BackgroundImageFix" result="effect1_dropShadow_1_85"/>
<feBlend mode="normal" in="SourceGraphic" in2="effect1_dropShadow_1_85" result="shape"/>
</filter>
<clipPath id="clip0_1_85">
<rect y="-2" width="359" height="755" rx="30" fill="white"/>
</clipPath>
</defs>
</svg>
